<?xml version="1.0" standalone="no"?>
<!DOCTYPE svg PUBLIC "-//W3C//DTD SVG 20010904//EN" "http://www.w3.org/TR/2001/REC-SVG-20010904/DTD/svg10.dtd">
<svg xmlns="http://www.w3.org/2000/svg" version="1.0" width="269.000000pt" height="297.000000pt" viewBox="0 0 269.000000 297.000000" preserveAspectRatio="xMidYMid meet">
<metadata>
Created by potrace 1.16, written by Peter Selinger 2001-2019
<meta name="Producer" content="Online-Convert"/></metadata>
<g transform="translate(0.000000,297.000000) scale(0.100000,-0.100000)" fill="#000000" stroke="none">
<path d="M1171 2409 c-82 -14 -229 -66 -298 -105 -80 -44 -195 -136 -252 -200 -54 -60 -128 -172 -160 -242 -21 -45 -28 -52 -54 -52 -20 0 -40 -11 -63 -34 l-34 -34 0 -187 0 -187 34 -34 c33 -33 36 -34 114 -34 l79 0 -8 43 c-21 107 -6 251 40 385 l29 82 -34 0 c-19 0 -34 5 -34 12 0 40 120 209 203 285 172 156 371 234 602 235 331 1 623 -168 784 -453 17 -31 31 -61 31 -67 0 -7 -15 -12 -36 -12 -31 0 -35 -3 -29 -17 67 -160 91 -322 66 -450 -7 -38 -6 -43 10 -43 24 0 24 -17 -1 -57 -39 -65 -54 -68 -371 -71 l-287 -3 -25 25 c-24 24 -33 26 -115 26 -80 0 -91 -2 -110 -23 -32 -34 -30 -89 4 -116 38 -30 180 -31 211 -2 20 19 40 20 330 23 269 3 312 5 339 20 51 28 92 76 111 129 13 35 23 49 36 49 11 0 34 15 53 34 l34 34 0 187 0 187 -34 34 c-23 23 -43 34 -63 34 -26 0 -33 7 -54 52 -117 253 -339 442 -616 524 -73 22 -112 27 -233 30 -80 1 -169 -1 -199 -7z"/>
<path d="M1175 1946 c-149 -24 -249 -70 -336 -152 -140 -134 -171 -374 -64 -493 83 -91 244 -122 425 -82 103 23 198 27 281 11 30 -6 101 -11 159 -12 158 -1 252 41 303 136 19 34 22 56 21 136 -2 239 -138 388 -404 446 -96 21 -290 26 -385 10z m-70 -241 c23 -22 25 -32 25 -109 0 -100 -4 -112 -41 -131 -40 -21 -57 -19 -90 14 -27 28 -29 34 -29 111 0 77 2 83 29 111 36 36 73 37 106 4z m576 -4 c27 -28 29 -34 29 -111 0 -77 -2 -83 -29 -111 -33 -33 -50 -35 -90 -14 -37 19 -41 31 -41 131 0 77 2 87 25 109 33 33 70 32 106 -4z"/>
</g>
</svg>
